<?xml version="1.0" encoding="UTF-8" standalone="no"?>
<!-- Created with Inkscape (http://www.inkscape.org/) -->

<svg
   xmlns:dc="http://purl.org/dc/elements/1.1/"
   xmlns:cc="http://creativecommons.org/ns#"
   xmlns:rdf="http://www.w3.org/1999/02/22-rdf-syntax-ns#"
   xmlns:svg="http://www.w3.org/2000/svg"
   xmlns="http://www.w3.org/2000/svg"
   xmlns:sodipodi="http://sodipodi.sourceforge.net/DTD/sodipodi-0.dtd"
   xmlns:inkscape="http://www.inkscape.org/namespaces/inkscape"
   id="svg2"
   version="1.1"
   inkscape:version="0.91 r13725"
   xml:space="preserve"
   width="151.77063"
   height="147.10684"
   viewBox="0 0 151.77063 147.10684"
   sodipodi:docname="linearization.svg"
   inkscape:export-filename="/home/mquinson/Teaching/rennes/prog_scala/Lecture2/fig/linearization.svg.png"
   inkscape:export-xdpi="90"
   inkscape:export-ydpi="90"><metadata
     id="metadata8"><rdf:RDF><cc:Work
         rdf:about=""><dc:format>image/svg+xml</dc:format><dc:type
           rdf:resource="http://purl.org/dc/dcmitype/StillImage" /><dc:title /></cc:Work></rdf:RDF></metadata><defs
     id="defs6"><clipPath
       clipPathUnits="userSpaceOnUse"
       id="clipPath32"><path
         d="m 112.35,1.16602 122.401,0 0,121.83298 -122.401,0 0,-121.83298 z"
         id="path34"
         inkscape:connector-curvature="0" /></clipPath><clipPath
       clipPathUnits="userSpaceOnUse"
       id="clipPath40"><path
         d="m 0,122.4 330,0 L 330,0 0,0 0,122.4 Z"
         id="path42"
         inkscape:connector-curvature="0" /></clipPath><clipPath
       clipPathUnits="userSpaceOnUse"
       id="clipPath150"><path
         d="m 0,122.4 330,0 L 330,0 0,0 0,122.4 Z"
         id="path152"
         inkscape:connector-curvature="0" /></clipPath><clipPath
       clipPathUnits="userSpaceOnUse"
       id="clipPath300"><path
         d="m 102.354,8.6205 115.299,0 0,11.0108 -115.299,0 0,-11.0108 z"
         id="path302"
         inkscape:connector-curvature="0" /></clipPath><clipPath
       clipPathUnits="userSpaceOnUse"
       id="clipPath308"><path
         d="m 0,27.2 330,0 L 330,0 0,0 0,27.2 Z"
         id="path310"
         inkscape:connector-curvature="0" /></clipPath><clipPath
       clipPathUnits="userSpaceOnUse"
       id="clipPath324"><path
         d="m 0,27.2 330,0 L 330,0 0,0 0,27.2 Z"
         id="path326"
         inkscape:connector-curvature="0" /></clipPath><clipPath
       clipPathUnits="userSpaceOnUse"
       id="clipPath340"><path
         d="m 0,27.2 330,0 L 330,0 0,0 0,27.2 Z"
         id="path342"
         inkscape:connector-curvature="0" /></clipPath><clipPath
       clipPathUnits="userSpaceOnUse"
       id="clipPath386"><path
         d="m 80.75,8.6205 160.101,0 0,11.0103 -160.101,0 0,-11.0103 z"
         id="path388"
         inkscape:connector-curvature="0" /></clipPath><clipPath
       clipPathUnits="userSpaceOnUse"
       id="clipPath394"><path
         d="m 0,27.2 330,0 L 330,0 0,0 0,27.2 Z"
         id="path396"
         inkscape:connector-curvature="0" /></clipPath><clipPath
       clipPathUnits="userSpaceOnUse"
       id="clipPath410"><path
         d="m 0,27.2 330,0 L 330,0 0,0 0,27.2 Z"
         id="path412"
         inkscape:connector-curvature="0" /></clipPath><clipPath
       clipPathUnits="userSpaceOnUse"
       id="clipPath426"><path
         d="m 0,27.2 330,0 L 330,0 0,0 0,27.2 Z"
         id="path428"
         inkscape:connector-curvature="0" /></clipPath><clipPath
       clipPathUnits="userSpaceOnUse"
       id="clipPath442"><path
         d="m 0,27.2 330,0 L 330,0 0,0 0,27.2 Z"
         id="path444"
         inkscape:connector-curvature="0" /></clipPath><clipPath
       clipPathUnits="userSpaceOnUse"
       id="clipPath472"><path
         d="m 22.0537,8.6205 287.6043,0 0,11.0108 -287.6043,0 0,-11.0108 z"
         id="path474"
         inkscape:connector-curvature="0" /></clipPath><clipPath
       clipPathUnits="userSpaceOnUse"
       id="clipPath488"><path
         d="m 0,27.2 330,0 L 330,0 0,0 0,27.2 Z"
         id="path490"
         inkscape:connector-curvature="0" /></clipPath><clipPath
       clipPathUnits="userSpaceOnUse"
       id="clipPath504"><path
         d="m 0,27.2 330,0 L 330,0 0,0 0,27.2 Z"
         id="path506"
         inkscape:connector-curvature="0" /></clipPath><clipPath
       clipPathUnits="userSpaceOnUse"
       id="clipPath520"><path
         d="m 0,27.2 330,0 L 330,0 0,0 0,27.2 Z"
         id="path522"
         inkscape:connector-curvature="0" /></clipPath><clipPath
       clipPathUnits="userSpaceOnUse"
       id="clipPath536"><path
         d="m 0,27.2 330,0 L 330,0 0,0 0,27.2 Z"
         id="path538"
         inkscape:connector-curvature="0" /></clipPath><clipPath
       clipPathUnits="userSpaceOnUse"
       id="clipPath552"><path
         d="m 0,27.2 330,0 L 330,0 0,0 0,27.2 Z"
         id="path554"
         inkscape:connector-curvature="0" /></clipPath></defs><sodipodi:namedview
     pagecolor="#ffffff"
     bordercolor="#666666"
     borderopacity="1"
     objecttolerance="10"
     gridtolerance="10"
     guidetolerance="10"
     inkscape:pageopacity="0"
     inkscape:pageshadow="2"
     inkscape:window-width="1920"
     inkscape:window-height="1020"
     id="namedview4"
     showgrid="false"
     inkscape:zoom="3.7773784"
     inkscape:cx="-0.52052364"
     inkscape:cy="93.780872"
     inkscape:window-x="0"
     inkscape:window-y="31"
     inkscape:window-maximized="1"
     inkscape:current-layer="g10"
     fit-margin-top="0"
     fit-margin-left="0"
     fit-margin-right="0"
     fit-margin-bottom="0" /><g
     id="g10"
     inkscape:groupmode="layer"
     inkscape:label="Programming in Scala, 2ndEd"
     transform="matrix(1.25,0,0,-1.25,-247.92887,659.79629)"><g
       id="g26"
       transform="translate(85.830002,407.214)"><g
         id="g28"><g
           id="g30"
           clip-path="url(#clipPath32)"><g
             id="g36"><g
               id="g38"
               clip-path="url(#clipPath40)"><text
                 transform="matrix(1,0,0,-1,180.7505,34.061)"
                 style="font-variant:normal;font-weight:normal;font-stretch:normal;font-size:9px;font-family:'Luxi Mono';-inkscape-font-specification:LuxiMono;writing-mode:lr-tb;fill:#231f20;fill-opacity:1;fill-rule:nonzero;stroke:none"
                 id="text44"><tspan
                   x="0 5.4000001 10.8 16.200001 21.6 27 32.400002 37.799999 43.200001 48.599998"
                   y="0"
                   sodipodi:role="line"
                   id="tspan46">FourLegged</tspan><tspan
                   x="-62.298 -56.897999 -51.498001"
                   y="30.996"
                   sodipodi:role="line"
                   id="tspan48">Cat</tspan><tspan
                   x="-41.499001 -36.098999 -30.698999 -25.299 -19.899"
                   y="0"
                   sodipodi:role="line"
                   id="tspan50">Furry</tspan><tspan
                   x="-12.402 -7.0019999 -1.602 3.7980001 9.198 14.598 19.997999 -68.400002 -63 -57.599998 -52.200001 -46.799999 -41.400002"
                   y="-30.500999"
                   sodipodi:role="line"
                   id="tspan52">HasLegsAnimal</tspan><tspan
                   x="-68.400002 -63 -57.599998 -52.200001 -46.799999 -41.400002"
                   y="-54.999001"
                   sodipodi:role="line"
                   id="tspan54">AnyRef</tspan><tspan
                   x="-60.299999 -54.900002 -49.5"
                   y="-80.000999"
                   sodipodi:role="line"
                   id="tspan56">Any</tspan></text>
<g
                 id="g58"
                 transform="translate(143,6.8661957)"><path
                   d="M 0,0 C 32.523,-0.734 59,6.534 66.333,18.201"
                   style="fill:none;stroke:#231f20;stroke-width:2;stroke-linecap:butt;stroke-linejoin:miter;stroke-miterlimit:4;stroke-dasharray:none;stroke-opacity:1"
                   id="path60"
                   inkscape:connector-curvature="0" /></g><g
                 id="g62"
                 transform="translate(212.54491,30.176804)"><path
                   d="m 0,0 c -0.619,-2.964 -0.972,-6.903 -0.522,-9.766 l -3.111,3.987 -4.941,1.074 C -5.8,-3.869 -2.402,-1.843 0,0"
                   style="fill:#231f20;fill-opacity:1;fill-rule:nonzero;stroke:none"
                   id="path64"
                   inkscape:connector-curvature="0" /></g><g
                 id="g66"
                 transform="translate(214.666,41.733398)"><path
                   d="M 0,0 C -0.666,8.167 -0.999,11.333 -6.999,16.334"
                   style="fill:none;stroke:#231f20;stroke-width:2;stroke-linecap:butt;stroke-linejoin:miter;stroke-miterlimit:4;stroke-dasharray:none;stroke-opacity:1"
                   id="path68"
                   inkscape:connector-curvature="0" /></g><g
                 id="g70"
                 transform="translate(203.0313,61.931595)"><path
                   d="M 0,0 C 2.855,-1.008 6.713,-1.883 9.608,-1.819 L 5.243,-4.371 3.52,-9.124 C 3.062,-6.264 1.506,-2.627 0,0"
                   style="fill:#231f20;fill-opacity:1;fill-rule:nonzero;stroke:none"
                   id="path72"
                   inkscape:connector-curvature="0" /></g><g
                 id="g74"
                 transform="translate(158.6665,44.733398)"><path
                   d="M 0,0 C -2.333,8 -3.667,9.334 -8.667,13.267"
                   style="fill:none;stroke:#231f20;stroke-width:2;stroke-linecap:butt;stroke-linejoin:miter;stroke-miterlimit:4;stroke-dasharray:none;stroke-opacity:1"
                   id="path76"
                   inkscape:connector-curvature="0" /></g><g
                 id="g78"
                 transform="translate(145.2563,61.731003)"><path
                   d="M 0,0 C 2.883,-0.927 6.764,-1.692 9.657,-1.545 L 5.365,-4.22 3.778,-9.021 C 3.238,-6.174 1.58,-2.583 0,0"
                   style="fill:#231f20;fill-opacity:1;fill-rule:nonzero;stroke:none"
                   id="path80"
                   inkscape:connector-curvature="0" /></g><g
                 id="g82"
                 transform="translate(145.334,70.666504)"><path
                   d="M 0,0 C 8.008,3.432 11.718,11.042 6.64,15.667"
                   style="fill:none;stroke:#231f20;stroke-width:2;stroke-linecap:butt;stroke-linejoin:miter;stroke-miterlimit:4;stroke-dasharray:none;stroke-opacity:1"
                   id="path84"
                   inkscape:connector-curvature="0" /></g><g
                 id="g86"
                 transform="translate(147.5117,90.397003)"><path
                   d="M 0,0 C 2.809,-1.133 6.624,-2.176 9.52,-2.239 L 5.047,-4.597 3.116,-9.27 C 2.783,-6.393 1.39,-2.69 0,0"
                   style="fill:#231f20;fill-opacity:1;fill-rule:nonzero;stroke:none"
                   id="path88"
                   inkscape:connector-curvature="0" /></g><g
                 id="g90"
                 transform="translate(147.5,94.332993)"><path
                   d="M 0,0 C 12.167,5.333 10.834,17.333 -4.833,20"
                   style="fill:none;stroke:#231f20;stroke-width:2;stroke-linecap:butt;stroke-linejoin:miter;stroke-miterlimit:4;stroke-dasharray:none;stroke-opacity:1"
                   id="path92"
                   inkscape:connector-curvature="0" /></g><g
                 id="g94"
                 transform="translate(136.7178,115.34621)"><path
                   d="M 0,0 C 2.975,0.563 6.75,1.744 9.223,3.253 L 6.729,-1.146 7.626,-6.122 C 5.793,-3.879 2.621,-1.515 0,0"
                   style="fill:#231f20;fill-opacity:1;fill-rule:nonzero;stroke:none"
                   id="path96"
                   inkscape:connector-curvature="0" /></g></g></g><g
             id="g98"
             transform="translate(125.959,82)"><path
               d="M 0,0 2.046,3.545 4.093,0 0,0 Z"
               style="fill:none;stroke:#231f20;stroke-width:0.75;stroke-linecap:butt;stroke-linejoin:miter;stroke-miterlimit:4;stroke-dasharray:none;stroke-opacity:1"
               id="path100"
               inkscape:connector-curvature="0" /></g><g
             id="g102"
             transform="translate(128.0049,72.334)"><path
               d="M 0,0 0,9.666"
               style="fill:none;stroke:#231f20;stroke-width:0.75;stroke-linecap:butt;stroke-linejoin:miter;stroke-miterlimit:4;stroke-dasharray:none;stroke-opacity:1"
               id="path104"
               inkscape:connector-curvature="0" /></g><g
             id="g106"
             transform="translate(125.334,107.25)"><path
               d="M 0,0 2.046,3.545 4.093,0 0,0 Z"
               style="fill:none;stroke:#231f20;stroke-width:0.75;stroke-linecap:butt;stroke-linejoin:miter;stroke-miterlimit:4;stroke-dasharray:none;stroke-opacity:1"
               id="path108"
               inkscape:connector-curvature="0" /></g><g
             id="g110"
             transform="translate(127.3799,97.584)"><path
               d="M 0,0 0,9.666"
               style="fill:none;stroke:#231f20;stroke-width:0.75;stroke-linecap:butt;stroke-linejoin:miter;stroke-miterlimit:4;stroke-dasharray:none;stroke-opacity:1"
               id="path112"
               inkscape:connector-curvature="0" /></g><g
             id="g114"
             transform="translate(125.834,57.625)"><path
               d="M 0,0 2.046,3.545 4.093,0 0,0 Z"
               style="fill:none;stroke:#231f20;stroke-width:0.75;stroke-linecap:butt;stroke-linejoin:miter;stroke-miterlimit:4;stroke-dasharray:none;stroke-opacity:1"
               id="path116"
               inkscape:connector-curvature="0" /></g><g
             id="g118"
             transform="translate(127.8799,12.067398)"><path
               d="M 0,0 0,45.558"
               style="fill:none;stroke:#231f20;stroke-width:0.75;stroke-linecap:butt;stroke-linejoin:miter;stroke-miterlimit:4;stroke-dasharray:none;stroke-opacity:1"
               id="path120"
               inkscape:connector-curvature="0" /></g><g
             id="g122"
             transform="translate(153.5,69.486298)"><path
               d="M 0,0 -3.545,-2.047 0,-4.094 0,0 Z"
               style="fill:none;stroke:#231f20;stroke-width:0.75;stroke-linecap:butt;stroke-linejoin:miter;stroke-miterlimit:4;stroke-dasharray:none;stroke-opacity:1"
               id="path124"
               inkscape:connector-curvature="0" /></g><g
             id="g126"
             transform="translate(165.31641,67.439499)"><path
               d="M 0,0 -11.816,0"
               style="fill:none;stroke:#231f20;stroke-width:0.75;stroke-linecap:butt;stroke-linejoin:miter;stroke-miterlimit:4;stroke-dasharray:none;stroke-opacity:1"
               id="path128"
               inkscape:connector-curvature="0" /></g><g
             id="g130"
             transform="translate(136.5732,56.272507)"><path
               d="M 0,0 -0.357,4.078 3.354,2.348 0,0 Z"
               style="fill:none;stroke:#231f20;stroke-width:0.75;stroke-linecap:butt;stroke-linejoin:miter;stroke-miterlimit:4;stroke-dasharray:none;stroke-opacity:1"
               id="path132"
               inkscape:connector-curvature="0" /></g><g
             id="g134"
             transform="translate(149.0117,42.075195)"><path
               d="M 0,0 -10.762,15.371"
               style="fill:none;stroke:#231f20;stroke-width:0.75;stroke-linecap:butt;stroke-linejoin:miter;stroke-miterlimit:4;stroke-dasharray:none;stroke-opacity:1"
               id="path136"
               inkscape:connector-curvature="0" /></g><g
             id="g138"
             transform="translate(176.459,29.130905)"><path
               d="M 0,0 -2.348,3.354 1.73,3.71 0,0 Z"
               style="fill:none;stroke:#231f20;stroke-width:0.75;stroke-linecap:butt;stroke-linejoin:miter;stroke-miterlimit:4;stroke-dasharray:none;stroke-opacity:1"
               id="path140"
               inkscape:connector-curvature="0" /></g><g
             id="g142"
             transform="translate(141,11.067398)"><path
               d="M 0,0 33.667,19.666"
               style="fill:none;stroke:#231f20;stroke-width:0.75;stroke-linecap:butt;stroke-linejoin:miter;stroke-miterlimit:4;stroke-dasharray:none;stroke-opacity:1"
               id="path144"
               inkscape:connector-curvature="0" /></g><g
             id="g146"><g
               id="g148"
               clip-path="url(#clipPath150)"><g
                 id="g154"
                 transform="translate(178.66701,60.334)"><path
                   d="M 0,0 C -1,-8.434 -3.667,-10.768 -8.667,-13.267"
                   style="fill:none;stroke:#231f20;stroke-width:2;stroke-linecap:butt;stroke-linejoin:miter;stroke-miterlimit:4;stroke-dasharray:none;stroke-opacity:1"
                   id="path156"
                   inkscape:connector-curvature="0" /></g><g
                 id="g158"
                 transform="translate(164.60159,44.369095)"><path
                   d="M 0,0 C 2.068,2.212 4.416,5.396 5.519,8.074 L 6.106,3.052 9.771,-0.433 C 6.966,0.294 3.01,0.327 0,0"
                   style="fill:#231f20;fill-opacity:1;fill-rule:nonzero;stroke:none"
                   id="path160"
                   inkscape:connector-curvature="0" /></g></g></g><g
             id="g162"
             transform="translate(147.6543,27.272507)"><path
               d="M 0,0 0.357,4.078 -3.354,2.348 0,0 Z"
               style="fill:none;stroke:#231f20;stroke-width:0.75;stroke-linecap:butt;stroke-linejoin:miter;stroke-miterlimit:4;stroke-dasharray:none;stroke-opacity:1"
               id="path164"
               inkscape:connector-curvature="0" /></g><g
             id="g166"
             transform="translate(135.21581,13.075195)"><path
               d="M 0,0 10.762,15.371"
               style="fill:none;stroke:#231f20;stroke-width:0.75;stroke-linecap:butt;stroke-linejoin:miter;stroke-miterlimit:4;stroke-dasharray:none;stroke-opacity:1"
               id="path168"
               inkscape:connector-curvature="0" /></g><g
             id="g170"
             transform="translate(191.42191,56.330093)"><path
               d="M 0,0 0.71,4.031 3.847,1.399 0,0 Z"
               style="fill:none;stroke:#231f20;stroke-width:0.75;stroke-linecap:butt;stroke-linejoin:miter;stroke-miterlimit:4;stroke-dasharray:none;stroke-opacity:1"
               id="path172"
               inkscape:connector-curvature="0" /></g><g
             id="g174"
             transform="translate(198.1611,43.792007)"><path
               d="M 0,0 -4.815,13.237"
               style="fill:none;stroke:#231f20;stroke-width:0.75;stroke-linecap:butt;stroke-linejoin:miter;stroke-miterlimit:4;stroke-dasharray:none;stroke-opacity:1"
               id="path176"
               inkscape:connector-curvature="0" /></g></g></g></g><text
       xml:space="preserve"
       style="font-style:normal;font-variant:normal;font-weight:normal;font-stretch:normal;font-size:11.19999981px;line-height:125%;font-family:'Source Sans Pro';-inkscape-font-specification:'Source Sans Pro, Normal';text-align:start;letter-spacing:0px;word-spacing:0px;writing-mode:lr-tb;text-anchor:start;fill:#000000;fill-opacity:1;stroke:none;stroke-width:1px;stroke-linecap:butt;stroke-linejoin:miter;stroke-opacity:1"
       x="218.67465"
       y="-425.82379"
       id="text3439"
       sodipodi:linespacing="125%"
       transform="scale(1,-1)"><tspan
         sodipodi:role="line"
         x="218.67465"
         y="-425.82379"
         id="tspan3443"
         style="font-style:italic;font-variant:normal;font-weight:300;font-stretch:normal;font-family:'Source Sans Pro';-inkscape-font-specification:'Source Sans Pro Light Italic';fill:#ff0000">is-a</tspan></text>
<text
       xml:space="preserve"
       style="font-style:normal;font-variant:normal;font-weight:normal;font-stretch:normal;font-size:11.19999981px;line-height:125%;font-family:'Source Sans Pro';-inkscape-font-specification:'Source Sans Pro, Normal';text-align:start;letter-spacing:0px;word-spacing:0px;writing-mode:lr-tb;text-anchor:start;fill:#000000;fill-opacity:1;stroke:none;stroke-width:1px;stroke-linecap:butt;stroke-linejoin:miter;stroke-opacity:1"
       x="243.66553"
       y="-507.57361"
       id="text3447"
       sodipodi:linespacing="125%"
       transform="scale(1,-1)"><tspan
         sodipodi:role="line"
         id="tspan3449"
         x="243.66553"
         y="-507.57361"
         style="-inkscape-font-specification:'Source Sans Pro Light Italic';font-family:'Source Sans Pro';font-weight:300;font-style:italic;font-stretch:normal;font-variant:normal;fill:#ff0000">linearization</tspan><tspan
         sodipodi:role="line"
         x="243.66553"
         y="-493.57361"
         id="tspan3451"
         style="-inkscape-font-specification:'Source Sans Pro Light Italic';font-family:'Source Sans Pro';font-weight:300;font-style:italic;font-stretch:normal;font-variant:normal;fill:#ff0000">order</tspan></text>
</g></svg>